<svg xmlns="http://www.w3.org/2000/svg" version="1.1" xmlns:xlink="http://www.w3.org/1999/xlink"
    width="512" height="512" x="0" y="0" viewBox="0 0 512 512"
    style="enable-background:new 0 0 512 512" xml:space="preserve" class=""><g><path d="M411.973 206.062a11.63 11.63 0 0 0 .478-13.696l-6.297-9.335 10.581 3.851a11.637 11.637 0 0 0 13.176-3.777l6.932-8.873-.394 11.253a11.63 11.63 0 0 0 7.664 11.361l10.582 3.852-10.823 3.104a11.627 11.627 0 0 0-8.439 10.8l-.393 11.253-6.297-9.336a11.627 11.627 0 0 0-12.878-4.687l-10.823 3.104 6.933-8.874zm-218.977-84.811 28.031 20.366a15.702 15.702 0 0 1 5.719 17.598l-10.708 32.953c-.259.798-.046 1.452.633 1.945.677.493 1.365.495 2.046 0l28.031-20.366c2.767-2.01 6.01-3.016 9.252-3.016s6.485 1.005 9.252 3.016l28.031 20.366c.683.495 1.371.493 2.046 0 .679-.493.892-1.147.633-1.945l-10.708-32.953a15.702 15.702 0 0 1 5.719-17.598l28.031-20.366c.679-.493.891-1.147.632-1.945-.26-.798-.816-1.203-1.655-1.203h-34.648a15.7 15.7 0 0 1-14.97-10.876l-10.707-32.953c-.26-.798-.816-1.203-1.655-1.203s-1.396.405-1.655 1.203l-10.707 32.953a15.7 15.7 0 0 1-14.97 10.876h-34.648c-.839 0-1.396.405-1.655 1.203s-.047 1.452.632 1.945zm-52.959 50.778-2.886 20.537 14.407-14.919a12.97 12.97 0 0 1 15.056-2.654l18.64 9.091-9.736-18.312a12.97 12.97 0 0 1 2.129-15.14l13.183-13.651-1.164-.845-18.037 3.18a12.965 12.965 0 0 1-13.74-6.701l-9.737-18.313-2.887 20.538a12.972 12.972 0 0 1-10.619 10.997l-20.424 3.602 18.64 9.092a12.97 12.97 0 0 1 7.177 13.499zm196.445-6.256-9.736 18.311 18.641-9.091a12.979 12.979 0 0 1 15.056 2.655l14.406 14.919-2.886-20.538a12.97 12.97 0 0 1 7.177-13.498l18.64-9.092-20.424-3.602a12.972 12.972 0 0 1-10.619-10.996l-2.887-20.539-9.736 18.312a12.968 12.968 0 0 1-13.741 6.702l-18.037-3.18-1.164.845 13.184 13.652a12.97 12.97 0 0 1 2.128 15.14zM76.568 214.602l.393 11.253 6.296-9.335a11.633 11.633 0 0 1 12.879-4.688l10.824 3.104-6.933-8.874a11.631 11.631 0 0 1-.479-13.696l6.298-9.336-10.581 3.851a11.628 11.628 0 0 1-13.174-3.776l-6.934-8.874.394 11.253a11.63 11.63 0 0 1-7.664 11.362l-10.582 3.852 10.824 3.104a11.628 11.628 0 0 1 8.438 10.801zm396.017 199.779 8.621-13.973c-65.421-40.786-132.337-37.486-222.264 10.544a7.002 7.002 0 0 1-6.596 0c-89.65-47.881-156.357-51.176-221.553-10.544l8.624 13.978zm16.284 14-465.835.005c-2.83.022-5.177 2.386-5.177 5.269s2.347 5.247 5.231 5.269l465.78.005c2.908 0 5.273-2.366 5.273-5.274s-2.366-5.273-5.273-5.274zm-458.075-51.94 3.512 5.693c32.981-18.15 66.652-25.882 102.383-23.564 35.854 2.322 73.731 14.502 118.956 38.285 45.222-23.778 83.213-35.958 119.313-38.285 35.947-2.316 69.724 5.414 102.734 23.567l3.514-5.695c-61.949-38.621-125.245-37.703-208.15 3.288 50.438-47.421 116.15-60.691 200.22-40.577a4.998 4.998 0 0 0 6.025-3.699 5 5 0 0 0-3.699-6.026c-47.674-11.406-90.737-12.216-127.992-2.409-34.988 9.211-65.888 28.042-91.921 56.005-26.978-28.355-58.824-48.006-94.737-58.444-36.495-10.607-78.292-12.002-124.234-4.151a5 5 0 1 0 1.685 9.857c82.988-14.186 148.499 1.968 199.594 49.329-82.509-40.727-145.534-41.606-207.204-3.172z" fill="#22c55e" opacity="1" data-original="#000000" class=""></path></g></svg>